<svg width="40" height="40" viewBox="0 0 40 40" fill="none" xmlns="http://www.w3.org/2000/svg">
<path d="M34.1 5.81999C32.2661 3.9682 30.0821 2.49992 27.675 1.50071C25.268 0.501503 22.6862 -0.00864841 20.08 -1.428e-05C9.16001 -1.428e-05 0.260006 8.89999 0.260006 19.82C0.260006 23.32 1.18001 26.72 2.90001 29.72L0.100006 40L10.6 37.24C13.5 38.82 16.76 39.66 20.08 39.66C31 39.66 39.9 30.76 39.9 19.84C39.9 14.54 37.84 9.55999 34.1 5.81999ZM20.08 36.3C17.12 36.3 14.22 35.5 11.68 34L11.08 33.64L4.84001 35.28L6.50001 29.2L6.10001 28.58C4.4551 25.9541 3.58186 22.9185 3.58001 19.82C3.58001 10.74 10.98 3.33999 20.06 3.33999C24.46 3.33999 28.6 5.05999 31.7 8.17999C33.2352 9.70771 34.4518 11.5251 35.2793 13.5266C36.1067 15.5282 36.5284 17.6742 36.52 19.84C36.56 28.92 29.16 36.3 20.08 36.3ZM29.12 23.98C28.62 23.74 26.18 22.54 25.74 22.36C25.28 22.2 24.96 22.12 24.62 22.6C24.28 23.1 23.34 24.22 23.06 24.54C22.78 24.88 22.48 24.92 21.98 24.66C21.48 24.42 19.88 23.88 18 22.2C16.52 20.88 15.54 19.26 15.24 18.76C14.96 18.26 15.2 18 15.46 17.74C15.68 17.52 15.96 17.16 16.2 16.88C16.44 16.6 16.54 16.38 16.7 16.06C16.86 15.72 16.78 15.44 16.66 15.2C16.54 14.96 15.54 12.52 15.14 11.52C14.74 10.56 14.32 10.68 14.02 10.66H13.06C12.72 10.66 12.2 10.78 11.74 11.28C11.3 11.78 10.02 12.98 10.02 15.42C10.02 17.86 11.8 20.22 12.04 20.54C12.28 20.88 15.54 25.88 20.5 28.02C21.68 28.54 22.6 28.84 23.32 29.06C24.5 29.44 25.58 29.38 26.44 29.26C27.4 29.12 29.38 28.06 29.78 26.9C30.2 25.74 30.2 24.76 30.06 24.54C29.92 24.32 29.62 24.22 29.12 23.98Z" fill="#286F6B"/>
</svg>
